<?xml version="1.0" encoding="utf-8"?>
<svg version="1.1" xmlns="http://www.w3.org/2000/svg" xmlns:xlink="http://www.w3.org/1999/xlink" x="0px" y="0px"
	 viewBox="0 0 36.8 36.9" style="enable-background:new 0 0 36.8 36.9;" xml:space="preserve">
	<path class="st0" d="M24.5,14.8c0.6-0.4,1.1-1,1.3-1.8c-0.6,0.4-1.2,0.6-1.9,0.8c-0.6-0.6-1.4-1-2.2-1c-1.7,0-3.1,1.4-3.1,3.2
		c0,0.3,0,0.5,0.1,0.7c-2.5-0.1-4.8-1.4-6.3-3.4c-0.3,0.5-0.4,1-0.4,1.6c0,1.1,0.5,2.1,1.4,2.7c-0.5,0-1-0.2-1.4-0.4
		c0,1.6,1.1,2.9,2.5,3.2c-0.3,0.1-0.5,0.1-0.8,0.1c-0.2,0-0.4,0-0.6-0.1c0.4,1.3,1.5,2.2,2.9,2.2c-1.1,0.9-2.4,1.4-3.8,1.4h-0.7
		c1.4,0.9,3,1.5,4.7,1.5c5.6,0,8.7-4.9,8.7-9.2v-0.4c0.6-0.5,1.1-1,1.5-1.7C25.7,14.6,25.1,14.8,24.5,14.8 M18.4,36
		C8.7,36,0.8,28.1,0.8,18.4c0-9.7,7.9-17.6,17.6-17.6S36,8.7,36,18.4C36,28.1,28.1,36,18.4,36"/>
	<path class="st0" d="M24.5,14.8c0.6-0.4,1.1-1,1.3-1.8c-0.6,0.4-1.2,0.6-1.9,0.8c-0.6-0.6-1.4-1-2.2-1c-1.7,0-3.1,1.4-3.1,3.2
		c0,0.3,0,0.5,0.1,0.7c-2.5-0.1-4.8-1.4-6.3-3.4c-0.3,0.5-0.4,1-0.4,1.6c0,1.1,0.5,2.1,1.4,2.7c-0.5,0-1-0.2-1.4-0.4
		c0,1.6,1.1,2.9,2.5,3.2c-0.3,0.1-0.5,0.1-0.8,0.1c-0.2,0-0.4,0-0.6-0.1c0.4,1.3,1.5,2.2,2.9,2.2c-1.1,0.9-2.4,1.4-3.8,1.4h-0.7
		c1.4,0.9,3,1.5,4.7,1.5c5.6,0,8.7-4.9,8.7-9.2v-0.4c0.6-0.5,1.1-1,1.5-1.7C25.7,14.6,25.1,14.8,24.5,14.8 M18.4,36
		C8.7,36,0.8,28.1,0.8,18.4c0-9.7,7.9-17.6,17.6-17.6S36,8.7,36,18.4C36,28.1,28.1,36,18.4,36"/>

		<path id="SVGID_3_" d="M18.6,16c0-1.8,1.4-3.2,3.1-3.2c0.8,0,1.6,0.4,2.2,1c0.7-0.2,1.3-0.4,1.9-0.8c-0.2,0.8-0.7,1.4-1.3,1.8
			c0.6,0,1.2-0.2,1.9-0.6c-0.4,0.7-0.9,1.2-1.5,1.7v0.4c0,4.3-3.1,9.2-8.7,9.2c-1.7,0-3.3-0.6-4.7-1.5h0.7c1.4,0,2.7-0.5,3.8-1.4
			c-1.4,0-2.5-0.9-2.9-2.2c0.2,0.1,0.4,0.1,0.6,0.1c0.3,0,0.5,0,0.8-0.1c-1.4-0.3-2.5-1.6-2.5-3.2c0.4,0.2,0.9,0.4,1.4,0.4
			C12.5,17,12,16,12,14.9c0-0.6,0.1-1.1,0.4-1.6c1.5,2,3.8,3.3,6.3,3.4C18.6,16.5,18.6,16.3,18.6,16 M0.8,18.4
			C0.8,28.1,8.7,36,18.4,36S36,28.1,36,18.4c0-9.7-7.9-17.6-17.6-17.6S0.8,8.7,0.8,18.4"/>

	<path class="st1" d="M18.4,36.9C8.2,36.9,0,28.6,0,18.5C0,8.4,8.2,0,18.4,0s18.4,8.3,18.4,18.4C36.8,28.5,28.5,36.9,18.4,36.9
		 M18.4,1.6C9.1,1.6,1.6,9.1,1.6,18.4s7.5,16.8,16.8,16.8s16.8-7.5,16.8-16.8S27.6,1.6,18.4,1.6 M16,26.4c-1.8,0-3.6-0.6-5.2-1.6
		L8,22.9l3.3,0.4c0.8,0.1,1.7,0,2.5-0.3c-0.8-0.5-1.4-1.3-1.7-2.2l-0.3-1c-0.5-0.7-0.8-1.5-0.8-2.5v-1.4l0.2,0.1
		c-0.1-0.3-0.1-0.7-0.1-1c0-0.7,0.2-1.4,0.5-2l0.6-1.1l0.7,1c1.2,1.6,2.9,2.6,4.8,3c0.1-2.1,1.8-3.9,3.9-3.9c0.9,0,1.8,0.3,2.5,0.9
		c0.4-0.1,0.9-0.3,1.3-0.6l1.8-1.1l-0.6,2l1.8-0.8l-1.5,2.3c-0.4,0.6-0.9,1.2-1.4,1.6C25.5,21.3,21.9,26.4,16,26.4 M14.3,24.6
		c0.6,0.1,1.1,0.2,1.7,0.2c5.5,0,7.9-4.9,7.9-8.4V16v-0.3L21,16.1l2.4-1.5l-0.2-0.2c-0.4-0.5-1-0.8-1.6-0.8c-1.2,0-2.3,1.1-2.3,2.4
		c0,0.2,0,0.4,0.1,0.6l0.2,1l-1.1-0.1c-2.2-0.1-4.3-1-5.9-2.6c0,0.8,0.4,1.6,1,2l2.2,1.5l-2.7-0.1h-0.3c0.3,0.6,0.9,1.1,1.6,1.2
		l3.1,0.7l-3,0.9c-0.1,0-0.2,0-0.3,0.1c0.4,0.4,0.9,0.7,1.5,0.7h2.2l-1.7,1.4C15.7,24,15,24.4,14.3,24.6"/>

</svg>
