<?xml version="1.0" encoding="utf-8"?>
<svg version="1.1" xmlns="http://www.w3.org/2000/svg" xmlns:xlink="http://www.w3.org/1999/xlink" x="0px" y="0px"
	 viewBox="0 0 35.2 35.2" style="enable-background:new 0 0 35.2 35.2;" xml:space="preserve">
	<path class="st0" d="M17.6,0C7.9,0,0,7.9,0,17.6c0,9.7,7.9,17.6,17.6,17.6c9.8,0,17.6-7.9,17.6-17.6C35.2,7.9,27.3,0,17.6,0
		 M13.8,24.3c-0.3,0.3-0.7,0.2-0.6-0.3l0.6-2.8l1.7,1.3L13.8,24.3z M21,25.1c-0.1,0.4-0.5,0.5-0.8,0.3L14,20.6l6.9-6.5l-9.1,5.3
		l-3.5-1.5c-0.4-0.2-0.4-0.7,0-0.9L23.2,11c0.4-0.1,0.7,0.2,0.7,0.6L21,25.1z"/>
</svg>
