<?xml version="1.0" encoding="utf-8"?><svg xmlns="http://www.w3.org/2000/svg" xmlns:xlink="http://www.w3.org/1999/xlink"><symbol viewBox="0 0 35.2 35.2" id="symbol_telegram" xmlns="http://www.w3.org/2000/svg"><path class="ast0" d="M17.6 0C7.9 0 0 7.9 0 17.6c0 9.7 7.9 17.6 17.6 17.6 9.8 0 17.6-7.9 17.6-17.6C35.2 7.9 27.3 0 17.6 0m-3.8 24.3c-.3.3-.7.2-.6-.3l.6-2.8 1.7 1.3-1.7 1.8zm7.2.8c-.1.4-.5.5-.8.3L14 20.6l6.9-6.5-9.1 5.3-3.5-1.5c-.4-.2-.4-.7 0-.9l14.9-6c.4-.1.7.2.7.6L21 25.1z"/></symbol><symbol viewBox="0 0 36.8 36.9" id="symbol_twitter" xmlns="http://www.w3.org/2000/svg"><path class="bst0" d="M24.5 14.8c.6-.4 1.1-1 1.3-1.8-.6.4-1.2.6-1.9.8-.6-.6-1.4-1-2.2-1-1.7 0-3.1 1.4-3.1 3.2 0 .3 0 .5.1.7-2.5-.1-4.8-1.4-6.3-3.4-.3.5-.4 1-.4 1.6 0 1.1.5 2.1 1.4 2.7-.5 0-1-.2-1.4-.4 0 1.6 1.1 2.9 2.5 3.2-.3.1-.5.1-.8.1-.2 0-.4 0-.6-.1.4 1.3 1.5 2.2 2.9 2.2-1.1.9-2.4 1.4-3.8 1.4h-.7c1.4.9 3 1.5 4.7 1.5 5.6 0 8.7-4.9 8.7-9.2v-.4c.6-.5 1.1-1 1.5-1.7-.7.4-1.3.6-1.9.6M18.4 36C8.7 36 .8 28.1.8 18.4.8 8.7 8.7.8 18.4.8S36 8.7 36 18.4C36 28.1 28.1 36 18.4 36"/><path class="bst0" d="M24.5 14.8c.6-.4 1.1-1 1.3-1.8-.6.4-1.2.6-1.9.8-.6-.6-1.4-1-2.2-1-1.7 0-3.1 1.4-3.1 3.2 0 .3 0 .5.1.7-2.5-.1-4.8-1.4-6.3-3.4-.3.5-.4 1-.4 1.6 0 1.1.5 2.1 1.4 2.7-.5 0-1-.2-1.4-.4 0 1.6 1.1 2.9 2.5 3.2-.3.1-.5.1-.8.1-.2 0-.4 0-.6-.1.4 1.3 1.5 2.2 2.9 2.2-1.1.9-2.4 1.4-3.8 1.4h-.7c1.4.9 3 1.5 4.7 1.5 5.6 0 8.7-4.9 8.7-9.2v-.4c.6-.5 1.1-1 1.5-1.7-.7.4-1.3.6-1.9.6M18.4 36C8.7 36 .8 28.1.8 18.4.8 8.7 8.7.8 18.4.8S36 8.7 36 18.4C36 28.1 28.1 36 18.4 36"/><path d="M18.6 16c0-1.8 1.4-3.2 3.1-3.2.8 0 1.6.4 2.2 1 .7-.2 1.3-.4 1.9-.8-.2.8-.7 1.4-1.3 1.8.6 0 1.2-.2 1.9-.6-.4.7-.9 1.2-1.5 1.7v.4c0 4.3-3.1 9.2-8.7 9.2-1.7 0-3.3-.6-4.7-1.5h.7c1.4 0 2.7-.5 3.8-1.4-1.4 0-2.5-.9-2.9-2.2.2.1.4.1.6.1.3 0 .5 0 .8-.1-1.4-.3-2.5-1.6-2.5-3.2.4.2.9.4 1.4.4-.9-.6-1.4-1.6-1.4-2.7 0-.6.1-1.1.4-1.6 1.5 2 3.8 3.3 6.3 3.4-.1-.2-.1-.4-.1-.7M.8 18.4C.8 28.1 8.7 36 18.4 36S36 28.1 36 18.4C36 8.7 28.1.8 18.4.8S.8 8.7.8 18.4"/><path class="bst1" d="M18.4 36.9C8.2 36.9 0 28.6 0 18.5 0 8.4 8.2 0 18.4 0s18.4 8.3 18.4 18.4c0 10.1-8.3 18.5-18.4 18.5m0-35.3C9.1 1.6 1.6 9.1 1.6 18.4s7.5 16.8 16.8 16.8 16.8-7.5 16.8-16.8S27.6 1.6 18.4 1.6M16 26.4c-1.8 0-3.6-.6-5.2-1.6L8 22.9l3.3.4c.8.1 1.7 0 2.5-.3-.8-.5-1.4-1.3-1.7-2.2l-.3-1c-.5-.7-.8-1.5-.8-2.5v-1.4l.2.1c-.1-.3-.1-.7-.1-1 0-.7.2-1.4.5-2l.6-1.1.7 1c1.2 1.6 2.9 2.6 4.8 3 .1-2.1 1.8-3.9 3.9-3.9.9 0 1.8.3 2.5.9.4-.1.9-.3 1.3-.6l1.8-1.1-.6 2 1.8-.8-1.5 2.3c-.4.6-.9 1.2-1.4 1.6 0 5-3.6 10.1-9.5 10.1m-1.7-1.8c.6.1 1.1.2 1.7.2 5.5 0 7.9-4.9 7.9-8.4v-.7l-2.9.4 2.4-1.5-.2-.2c-.4-.5-1-.8-1.6-.8-1.2 0-2.3 1.1-2.3 2.4 0 .2 0 .4.1.6l.2 1-1.1-.1c-2.2-.1-4.3-1-5.9-2.6 0 .8.4 1.6 1 2l2.2 1.5-2.7-.1h-.3c.3.6.9 1.1 1.6 1.2l3.1.7-3 .9c-.1 0-.2 0-.3.1.4.4.9.7 1.5.7h2.2l-1.7 1.4c-.5.7-1.2 1.1-1.9 1.3"/></symbol><symbol viewBox="0 0 35.2 35.2" id="symbol_youtube" xmlns="http://www.w3.org/2000/svg"><path class="cst0" d="M17.6 0C7.9 0 0 7.9 0 17.6s7.9 17.6 17.6 17.6c9.8 0 17.6-7.9 17.6-17.6S27.3 0 17.6 0m8.7 20.7c0 3-3 3-3 3H11.8c-3 0-3-3-3-3v-6.2c0-3 3-3 3-3h11.5c3 0 3 3 3 3v6.2z"/><path class="cst0" d="M15.2 20.9l5.8-3.3-5.8-3.4z"/></symbol></svg>